<svg xmlns="http://www.w3.org/2000/svg" viewBox="0 0 21.52 34.06"><defs><style>.cls-1{isolation:isolate;}.cls-2{fill:#daa520;}.cls-3{fill:#fac78b;}.cls-4,.cls-7{fill:#c6c6c5;}.cls-4,.cls-6{mix-blend-mode:multiply;}.cls-5{fill:#fff;}.cls-8{fill:#d6ac7a;}.cls-9{fill:#402716;}.cls-10{fill:#1f0f00;}.cls-11{fill:#231201;}.cls-12{fill:#391501;}.cls-13{fill:#f19386;opacity:0.2;}.cls-14{fill:#d56558;}.cls-15{fill:#173d47;}.cls-16{fill:#cedae2;}.cls-17{fill:#2b3038;}.cls-18{fill:#af821e;}</style></defs><g class="cls-1"><g id="Layer_1" data-name="Layer 1"><path class="cls-2" d="M25.14,40.19l.1-24.59H9.59c-.07,3.07-.26,15.61.85,24.59Z" transform="translate(-8.39 -6.13)"/><path class="cls-2" d="M25.15,40.19l.09-24.59H11.53a229.26,229.26,0,0,0,.74,24.59Z" transform="translate(-8.39 -6.13)"/><path class="cls-3" d="M22.21,34.69c.08.61.17,1.23.26,1.84l.29,1.84.31,1.82H26.2l-.81-6a1.61,1.61,0,0,0-3.19.42Z" transform="translate(-8.39 -6.13)"/><path class="cls-3" d="M11.7,40.19l1-5.45a1.61,1.61,0,0,0-3.16-.59v.06q-.18.93-.33,1.86l-.31,1.87-.33,2.25Z" transform="translate(-8.39 -6.13)"/><polygon class="cls-3" points="10.86 25.82 6.99 25.82 7.61 21.66 10.3 21.66 10.86 25.82"/><path class="cls-4" d="M16.76,29.43c.72-.1,1.7-.21,2.07-.82l-.14-.82H16l-.31,2.05A2.78,2.78,0,0,1,16.76,29.43Z" transform="translate(-8.39 -6.13)"/><path class="cls-3" d="M11,40.19H23.67l.74-3.12c1.08-3.1-.35-4.29-.35-4.29l-4.92-2.05H15.55l-4.92,2.05S9.21,34,10.28,37.07Z" transform="translate(-8.39 -6.13)"/><path class="cls-5" d="M23.67,40.19l.73-3.07A3.09,3.09,0,0,1,24,32.77l-4.4-1.87-2.31.26L15,31l-4.28,1.8a3.08,3.08,0,0,1-.41,4.41l.72,3Z" transform="translate(-8.39 -6.13)"/><path class="cls-3" d="M23.49,20.19c-.13,1,.28,1.94.93,2s1.28-.67,1.42-1.71-.28-1.93-.93-2S23.63,19.16,23.49,20.19Z" transform="translate(-8.39 -6.13)"/><g class="cls-6"><path class="cls-7" d="M24.29,19.89a.91.91,0,0,1,0-.16,1.66,1.66,0,0,1,.13-.37c.07-.14.19-.3.36-.31h.12l.07,0s0,0,0,0a.54.54,0,0,1,.17.22,1,1,0,0,1,.1.29,1.46,1.46,0,0,1,0,.29,2.53,2.53,0,0,1,0,.3c0,.09,0,.18,0,.26s0,.16-.05.22l-.05.17c0,.1,0,.15,0,.15l.08-.13c0-.05,0-.1.08-.16s.06-.14.09-.22l.09-.26a1.54,1.54,0,0,0,.05-.31,1,1,0,0,0,0-.35,1.5,1.5,0,0,0-.11-.34.76.76,0,0,0-.24-.3l-.1-.05a.19.19,0,0,0-.09,0,.6.6,0,0,0-.19,0,.48.48,0,0,0-.3.18.87.87,0,0,0-.14.27,1.39,1.39,0,0,0-.06.41A.55.55,0,0,0,24.29,19.89Z" transform="translate(-8.39 -6.13)"/></g><path class="cls-4" d="M24.29,19.89s-.07-.11.35-.15c0,0,.48.07.23.58a1.42,1.42,0,0,0-.11.35c0,.17.06.4-.05.56s-.51.09-.55-.13.17-.47.27-.6A.4.4,0,0,0,24.29,19.89Z" transform="translate(-8.39 -6.13)"/><g class="cls-6"><path class="cls-7" d="M24.16,21.07l0,0a.44.44,0,0,0-.06.1.17.17,0,0,0,0,.07.14.14,0,0,0,0,.09.28.28,0,0,0,0,.09.59.59,0,0,0,0,.08.56.56,0,0,0,.05.08l.07.06a.28.28,0,0,0,.13.07.53.53,0,0,0,.15,0l-.07-.13,0,0a.21.21,0,0,0,0-.06l0-.05s0,0,0-.06a.37.37,0,0,1-.05-.11l0-.06s0,0,0-.05A1.2,1.2,0,0,1,24.16,21.07Z" transform="translate(-8.39 -6.13)"/></g><path class="cls-3" d="M11.31,20.19c.14,1-.27,1.94-.92,2S9.11,21.54,9,20.5s.28-1.93.92-2S11.18,19.16,11.31,20.19Z" transform="translate(-8.39 -6.13)"/><g class="cls-6"><path class="cls-7" d="M10.52,19.89l0-.16a1.27,1.27,0,0,0-.13-.37c-.07-.14-.19-.3-.35-.31H9.89l-.07,0-.05,0a.52.52,0,0,0-.16.22,1,1,0,0,0-.1.29,1,1,0,0,0,0,.29,2.53,2.53,0,0,0,0,.3c0,.09,0,.18,0,.26s0,.16,0,.22a1.22,1.22,0,0,0,.05.17,1,1,0,0,0,0,.15l-.08-.13c0-.05,0-.1-.08-.16s-.06-.14-.09-.22a2,2,0,0,1-.09-.26,2.84,2.84,0,0,1-.06-.31,1.38,1.38,0,0,1,0-.35,1.12,1.12,0,0,1,.11-.34.76.76,0,0,1,.24-.3l.09-.05.09,0a.67.67,0,0,1,.2,0,.51.51,0,0,1,.3.18.87.87,0,0,1,.14.27,1.83,1.83,0,0,1,.06.41C10.53,19.83,10.52,19.89,10.52,19.89Z" transform="translate(-8.39 -6.13)"/></g><path class="cls-4" d="M10.52,19.89s.07-.11-.35-.15c0,0-.48.07-.24.58a1.12,1.12,0,0,1,.12.35c0,.17-.06.4,0,.56s.51.09.55-.13a1.13,1.13,0,0,0-.27-.6A.4.4,0,0,1,10.52,19.89Z" transform="translate(-8.39 -6.13)"/><g class="cls-6"><path class="cls-7" d="M10.65,21.07l0,0a.23.23,0,0,1,.05.1.19.19,0,0,1,0,.07.27.27,0,0,1,0,.09s0,.06,0,.09a.59.59,0,0,1,0,.08.24.24,0,0,1-.06.08l-.06.06a.31.31,0,0,1-.14.07.44.44,0,0,1-.14,0l.07-.13,0,0,0-.06,0-.05s0,0,0-.06a.39.39,0,0,0,.06-.11.14.14,0,0,0,0-.06s0,0,0-.05Z" transform="translate(-8.39 -6.13)"/></g><path class="cls-3" d="M20.89,9.5a9.5,9.5,0,0,0-7.11,0S8,12.26,11.57,23.75a7.81,7.81,0,0,0,3.51,3.83,3.94,3.94,0,0,0,4.51,0c1.45-.92,3-2.18,3.5-3.83C26.65,12.26,20.89,9.5,20.89,9.5Z" transform="translate(-8.39 -6.13)"/><path class="cls-8" d="M16.23,21.78l1.17-.05c.05,0,.1,0,.15,0h.53c.13,0,.24,0,.34,0l.15,0a.77.77,0,0,1,0,.15,1,1,0,0,1-.14.36,1.14,1.14,0,0,1-.39.36,1,1,0,0,1-.29.12,1.38,1.38,0,0,1-.66,0,.93.93,0,0,1-.29-.12,1.07,1.07,0,0,1-.39-.37.78.78,0,0,1-.14-.36A.77.77,0,0,1,16.23,21.78Z" transform="translate(-8.39 -6.13)"/><path class="cls-9" d="M13.55,18.81a.73.73,0,1,0,.71-.75A.73.73,0,0,0,13.55,18.81Z" transform="translate(-8.39 -6.13)"/><path class="cls-10" d="M14,18.81a.26.26,0,1,0,.25-.27A.25.25,0,0,0,14,18.81Z" transform="translate(-8.39 -6.13)"/><path class="cls-11" d="M15.58,18.7a.52.52,0,0,1-.18,0l-.18-.07-.31-.18h0a1.35,1.35,0,0,0-.34-.17.6.6,0,0,0-.35,0,.91.91,0,0,0-.34.14,2.44,2.44,0,0,0-.29.27h0a.56.56,0,0,1-.16.15.66.66,0,0,1-.19.09.57.57,0,0,1-.39-.05.54.54,0,0,0,.34-.08l.12-.1a.62.62,0,0,0,.08-.12h0l.13-.2.17-.17a1.05,1.05,0,0,1,.46-.23.88.88,0,0,1,.51.06,1.18,1.18,0,0,1,.41.29h0l.24.24.13.12A.75.75,0,0,0,15.58,18.7Z" transform="translate(-8.39 -6.13)"/><path class="cls-11" d="M13.54,18.6a1.35,1.35,0,0,1-.43.06.4.4,0,0,1-.28-.1c-.06-.07-.05-.13-.06-.13s0,.06.07.11a.33.33,0,0,0,.26,0,1.28,1.28,0,0,0,.39-.13Z" transform="translate(-8.39 -6.13)"/><path class="cls-11" d="M13.65,18.48a1.24,1.24,0,0,1-.44,0,.4.4,0,0,1-.26-.15c0-.07,0-.13,0-.13s0,.06.06.11a.33.33,0,0,0,.25.09,1.6,1.6,0,0,0,.4-.06Z" transform="translate(-8.39 -6.13)"/><path class="cls-5" d="M13.74,18.63a.18.18,0,1,0,.36,0,.17.17,0,0,0-.18-.17A.19.19,0,0,0,13.74,18.63Z" transform="translate(-8.39 -6.13)"/><path class="cls-5" d="M14,18.81a.09.09,0,0,0,.1.08.08.08,0,0,0,.08-.09.09.09,0,0,0-.09-.09A.09.09,0,0,0,14,18.81Z" transform="translate(-8.39 -6.13)"/><path class="cls-12" d="M12.44,17.34s.83-1.21,3-.56a3.6,3.6,0,0,1,.82.37s.3,0,.21-.81C16.48,16.34,12.82,14.89,12.44,17.34Z" transform="translate(-8.39 -6.13)"/><path class="cls-9" d="M21.25,18.81a.72.72,0,0,1-.74.7.73.73,0,1,1,0-1.45A.72.72,0,0,1,21.25,18.81Z" transform="translate(-8.39 -6.13)"/><path class="cls-10" d="M20.79,18.81a.26.26,0,0,1-.27.25.26.26,0,0,1-.26-.27.26.26,0,0,1,.27-.25A.26.26,0,0,1,20.79,18.81Z" transform="translate(-8.39 -6.13)"/><path class="cls-11" d="M19.23,18.7a.75.75,0,0,0,.15-.09l.13-.12a2.72,2.72,0,0,1,.24-.24h0a1.18,1.18,0,0,1,.41-.29.87.87,0,0,1,.51-.06,1.11,1.11,0,0,1,.46.23l.17.17.13.2h0a.35.35,0,0,0,.08.12.58.58,0,0,0,.12.1.53.53,0,0,0,.33.08.55.55,0,0,1-.38.05.66.66,0,0,1-.19-.09.56.56,0,0,1-.16-.15h0a1.93,1.93,0,0,0-.3-.27.81.81,0,0,0-.33-.14.6.6,0,0,0-.35,0,1.35,1.35,0,0,0-.34.17h0a3.3,3.3,0,0,1-.32.18l-.17.07A.55.55,0,0,1,19.23,18.7Z" transform="translate(-8.39 -6.13)"/><path class="cls-11" d="M21.32,18.45a1.28,1.28,0,0,0,.38.13.32.32,0,0,0,.26,0,.2.2,0,0,0,.07-.11.17.17,0,0,1-.05.13.4.4,0,0,1-.28.1,1.45,1.45,0,0,1-.44-.06Z" transform="translate(-8.39 -6.13)"/><path class="cls-11" d="M21.19,18.33a1.6,1.6,0,0,0,.4.06.33.33,0,0,0,.25-.09.17.17,0,0,0,.05-.11.21.21,0,0,1,0,.13.4.4,0,0,1-.26.15,1.24,1.24,0,0,1-.44,0Z" transform="translate(-8.39 -6.13)"/><path class="cls-5" d="M21.07,18.63a.18.18,0,0,1-.19.17.17.17,0,0,1-.17-.19.17.17,0,0,1,.18-.17A.19.19,0,0,1,21.07,18.63Z" transform="translate(-8.39 -6.13)"/><path class="cls-5" d="M20.79,18.81a.1.1,0,0,1-.1.08.09.09,0,0,1-.09-.09.1.1,0,0,1,.1-.09A.09.09,0,0,1,20.79,18.81Z" transform="translate(-8.39 -6.13)"/><path class="cls-12" d="M22.37,17.34s-.83-1.21-3-.56a3.42,3.42,0,0,0-.82.37s-.3,0-.21-.81C18.33,16.34,22,14.89,22.37,17.34Z" transform="translate(-8.39 -6.13)"/><path class="cls-13" d="M23.05,20.31c-.05-.59-.89-1-1.87-.91s-1.74.63-1.69,1.22.89,1,1.88.91S23.11,20.9,23.05,20.31Z" transform="translate(-8.39 -6.13)"/><path class="cls-13" d="M13.49,19.4c-1-.09-1.82.32-1.87.91s.7,1.13,1.68,1.22,1.83-.32,1.88-.91S14.48,19.49,13.49,19.4Z" transform="translate(-8.39 -6.13)"/><path class="cls-5" d="M24.74,22a.42.42,0,1,1-.42-.42A.42.42,0,0,1,24.74,22Z" transform="translate(-8.39 -6.13)"/><path class="cls-5" d="M10.91,22a.42.42,0,0,1-.42.43.43.43,0,1,1,.42-.43Z" transform="translate(-8.39 -6.13)"/><path class="cls-5" d="M15.24,24a2.49,2.49,0,0,0,2.16,1.57A2.5,2.5,0,0,0,19.57,24Z" transform="translate(-8.39 -6.13)"/><path class="cls-14" d="M15.24,24a2,2,0,0,1,.21.16l.23.17c.09.06.17.13.28.19a2.17,2.17,0,0,0,.33.19,2.32,2.32,0,0,0,.36.16A1.78,1.78,0,0,0,17,25a1.13,1.13,0,0,0,.18,0h.15a3.33,3.33,0,0,0,.44,0c.09,0,.24-.07.36-.1a2.72,2.72,0,0,0,.35-.16,1.77,1.77,0,0,0,.33-.19c.11-.06.2-.14.29-.2a1.53,1.53,0,0,0,.23-.17l.21-.15a1,1,0,0,1,0,.26,1.3,1.3,0,0,1-.06.31,2.7,2.7,0,0,1-.15.38,2.3,2.3,0,0,1-.28.41,2.65,2.65,0,0,1-.42.39,2.34,2.34,0,0,1-.27.15,1,1,0,0,1-.32.13,2.25,2.25,0,0,1-.6.1h-.22l-.16,0a1.23,1.23,0,0,1-.33-.08,1.89,1.89,0,0,1-.57-.28,2.22,2.22,0,0,1-.42-.38,2.3,2.3,0,0,1-.28-.41,2.79,2.79,0,0,1-.15-.39,1.05,1.05,0,0,1-.07-.3C15.24,24.1,15.24,24,15.24,24Z" transform="translate(-8.39 -6.13)"/><path class="cls-14" d="M19.57,24a3.51,3.51,0,0,1-.67.2,7.26,7.26,0,0,1-1.5.16,6.6,6.6,0,0,1-1.49-.16,3.51,3.51,0,0,1-.67-.2,3.09,3.09,0,0,1,.67-.21,6.6,6.6,0,0,1,1.49-.16,7.26,7.26,0,0,1,1.5.16A3.09,3.09,0,0,1,19.57,24Z" transform="translate(-8.39 -6.13)"/><path class="cls-2" d="M10.7,20.25s0-1.87-1-1.73c-.94-7.78,2.64-8.68,2.64-8.68C12.11,8.45,14,7.25,14,7.25a8.89,8.89,0,0,1,10,.94c4.12,2.78.83,10.33.83,10.33-1-.14-1,1.73-1,1.73-.14-6.25-2.08-7.5-2.08-7.5a9.48,9.48,0,0,0-8.88,0,4.38,4.38,0,0,0-1,3.27S10.81,16.57,10.7,20.25Z" transform="translate(-8.39 -6.13)"/><polygon class="cls-3" points="4.99 6.66 4.5 4.75 5.5 6.45 4.99 6.66"/><path class="cls-15" d="M14.88,40.19V31l-4.17,1.75a3.08,3.08,0,0,1-.41,4.41l.72,3Z" transform="translate(-8.39 -6.13)"/><path class="cls-15" d="M23.67,40.19l.73-3.07A3.09,3.09,0,0,1,24,32.77L20,31v9.15Z" transform="translate(-8.39 -6.13)"/><polygon class="cls-16" points="8.93 25.01 7.17 23.66 5.1 25.1 7.16 27.73 8.93 25.01"/><polygon class="cls-16" points="8.92 25.01 10.68 23.66 12.76 25.1 10.7 27.73 8.92 25.01"/><path class="cls-17" d="M18.06,36.17a9.67,9.67,0,0,1,.18-1.3,2.11,2.11,0,0,0-.48-2.07c1-.61,1.95-1.67,1.57-2.62a.17.17,0,0,0-.19-.09,2.91,2.91,0,0,0-1.8,2.24,11.89,11.89,0,0,0-.93-.95c-.27-.25-.81-.84-1.32-.6s.2.91.41,1.12a3.4,3.4,0,0,0,1.61.94.09.09,0,0,0-.06.08,4.25,4.25,0,0,0-1,2.4c-.2,1.23.46,2.41.11,3.63,0,.16.22.25.33.11.58-.73.12-1.86,0-2.66A4.75,4.75,0,0,1,17.36,33l.22-.12a3.54,3.54,0,0,1,.14,2.62c-.11.64-.23,1.57.47,2,.1.06.28,0,.23-.11A3.71,3.71,0,0,1,18.06,36.17ZM16,31.84a2.76,2.76,0,0,1-.54-.54s-.24-.33-.06-.29c.42.09.85.64,1.1.89s.37.38.55.57A3.27,3.27,0,0,1,16,31.84Zm3.09-1.46c.2.82-.68,1.65-1.51,2.18A2.9,2.9,0,0,1,19.08,30.38Z" transform="translate(-8.39 -6.13)"/><path class="cls-15" d="M11.7,40.19l1-5.45a1.79,1.79,0,0,0-1.25-2.07,2,2,0,0,0-2,1.55l-1,6Z" transform="translate(-8.39 -6.13)"/><path class="cls-15" d="M23,40.19h3.42l-1-6a2.18,2.18,0,0,0-2.23-1.55A1.79,1.79,0,0,0,22,34.67Z" transform="translate(-8.39 -6.13)"/><path class="cls-2" d="M26.51,40.19h2.15C33.18,13.74,23.89,8.08,24.51,8.7l-1.34,3.15C28.55,15.8,27.48,31.82,26.51,40.19Z" transform="translate(-8.39 -6.13)"/><path class="cls-18" d="M19.25,12.09c5.2,1.66,4.18,8.12,4.11,12.45,0,0,.88,9.24,1.23,15.65h2.55c3.23-31.85-7-31-7-31-5-.09-6.13,3-6.13,3C17.62,11.57,19.25,12.09,19.25,12.09Z" transform="translate(-8.39 -6.13)"/></g></g></svg>