<svg id="Layer_1" data-name="Layer 1" xmlns="http://www.w3.org/2000/svg" viewBox="0 0 25.03 34.31"><defs><style>.cls-1{fill:#fac78b;}.cls-2{fill:#fff;}.cls-3{fill:#aedef8;}.cls-4{fill:#173d47;}.cls-5{fill:#22515e;}.cls-6{fill:#892a2d;}.cls-7{fill:#6d2021;}.cls-8{fill:#d6edfc;}.cls-9{fill:#1e1c1b;}.cls-10{fill:#d6ac7a;}.cls-11{fill:#4f2a0c;}.cls-12{fill:#271000;}</style></defs><rect class="cls-1" x="10.37" y="19.03" width="3.67" height="3.6"/><path class="cls-1" d="M25,17.17c-.13,1,.27,1.83.88,1.91s1.22-.64,1.35-1.62-.27-1.83-.88-1.91S25.12,16.19,25,17.17Z" transform="translate(-7.36 -5.36)"/><path class="cls-1" d="M14.14,17.17c.13,1-.27,1.83-.88,1.91s-1.22-.64-1.35-1.62.26-1.83.88-1.91S14,16.19,14.14,17.17Z" transform="translate(-7.36 -5.36)"/><path class="cls-1" d="M19.58,6.11h0c-1.47.08-7.88,1-6.34,10.88l.37,4.13a4.39,4.39,0,0,0,1.48,1.8,19.27,19.27,0,0,0,3.64,2.41s.37.1.86.28v0h0v0c.49-.18.85-.28.85-.28a19.27,19.27,0,0,0,3.64-2.41,2.74,2.74,0,0,0,1.21-1.8L25.93,17C27.46,7.11,21.05,6.19,19.58,6.11Z" transform="translate(-7.36 -5.36)"/><path class="cls-1" d="M12.48,39.67H26.64l1.06-7.4a2.76,2.76,0,0,0-1.09-3l-5.36-2.13H17.88l-5.36,2.13a2.76,2.76,0,0,0-1.09,3Z" transform="translate(-7.36 -5.36)"/><path class="cls-2" d="M11.73,39.67H27.39l.31-7.4a2.76,2.76,0,0,0-1.09-3L21.4,27.21,19.54,28l-1.81-.77-5.21,2.08a2.76,2.76,0,0,0-1.09,3Z" transform="translate(-7.36 -5.36)"/><path class="cls-3" d="M7.36,39.67H12c.24-1.41,1.38-8.22.55-10.37L9.28,30.67c-1.09.66-1,2.47-1,2.47Z" transform="translate(-7.36 -5.36)"/><path class="cls-3" d="M32.34,39.67,30.6,32.58a2.87,2.87,0,0,0-1.36-2.21L26.5,29.26c-.82,2.15.32,9,.57,10.41Z" transform="translate(-7.36 -5.36)"/><path class="cls-4" d="M11.44,39.67h5.81V27.4l-4.73,1.88a2.76,2.76,0,0,0-1.09,3Z" transform="translate(-7.36 -5.36)"/><path class="cls-4" d="M27.68,39.67l0-7.4a2.76,2.76,0,0,0-1.09-3l-4.91-2V39.67Z" transform="translate(-7.36 -5.36)"/><path class="cls-4" d="M7.36,39.67H12c.24-1.41,1.38-8.22.55-10.37L9.28,30.67c-1.09.66-1,2.47-1,2.47Z" transform="translate(-7.36 -5.36)"/><path class="cls-4" d="M32.39,39.67l-.49-6.43a3.37,3.37,0,0,0-1.43-2.46l-4-1.52c-.82,2.15.32,9,.57,10.41Z" transform="translate(-7.36 -5.36)"/><polygon class="cls-5" points="7.13 30.87 8.29 34.31 9.9 34.31 9.9 22.04 4.84 23.84 8.63 29.49 7.13 30.87"/><polygon class="cls-5" points="15.93 34.31 17.11 30.8 15.61 29.42 19.4 23.77 14.35 21.97 14.35 34.31 15.93 34.31"/><polygon class="cls-6" points="13.4 34.31 12.91 25.02 11.49 25.02 11.01 34.31 13.4 34.31"/><polygon class="cls-7" points="10.64 22.73 13.77 22.73 12.93 25.02 11.49 25.02 10.64 22.73"/><polygon class="cls-8" points="12.21 22.61 14.04 21.21 16.21 22.71 14.06 25.45 12.21 22.61"/><polygon class="cls-8" points="12.18 22.61 10.35 21.21 8.18 22.71 10.33 25.45 12.18 22.61"/><path class="cls-9" d="M25.59,18s-.11.53-.14.57l-.31,1.37A2.79,2.79,0,0,1,24,21.73a18.68,18.68,0,0,1-3.54,2.4s-.36.11-.83.28v0h0v0l-.83-.28a18.9,18.9,0,0,1-3.55-2.4,4.42,4.42,0,0,1-1.44-1.81l-.19-2h-.29l.32,3.15a4.39,4.39,0,0,0,1.48,1.8,19.27,19.27,0,0,0,3.64,2.41s.37.1.86.28v0h0v0c.49-.18.85-.28.85-.28a19.27,19.27,0,0,0,3.64-2.41,2.74,2.74,0,0,0,1.21-1.8l.6-3.15Z" transform="translate(-7.36 -5.36)"/><path class="cls-10" d="M18.61,19.4l.08,0c.06,0,.13,0,.22,0l.31,0h.72l.31,0h.32l0,.11,0,0a.44.44,0,0,1,0,.14,1.58,1.58,0,0,1-.19.36,1,1,0,0,1-.34.33.68.68,0,0,1-.21.1,1.66,1.66,0,0,1-.22,0,.93.93,0,0,1-.23,0,.9.9,0,0,1-.21-.08,1,1,0,0,1-.35-.33.9.9,0,0,1-.17-.38.56.56,0,0,1,0-.15v0Z" transform="translate(-7.36 -5.36)"/><path class="cls-11" d="M22.72,16.21a.61.61,0,1,1-.61-.61A.61.61,0,0,1,22.72,16.21Z" transform="translate(-7.36 -5.36)"/><path class="cls-12" d="M22.39,16.21a.28.28,0,0,1-.56,0,.28.28,0,0,1,.56,0Z" transform="translate(-7.36 -5.36)"/><path class="cls-2" d="M22.61,16a.22.22,0,1,1-.22-.22A.22.22,0,0,1,22.61,16Z" transform="translate(-7.36 -5.36)"/><path class="cls-2" d="M22.16,15.89A.13.13,0,0,1,22,16a.13.13,0,1,1,0-.26A.13.13,0,0,1,22.16,15.89Z" transform="translate(-7.36 -5.36)"/><path class="cls-9" d="M20.77,14s3.17-.52,3.45,1a5.29,5.29,0,0,0-2-.32l-1.52.08S20.49,14.26,20.77,14Z" transform="translate(-7.36 -5.36)"/><path class="cls-11" d="M16.41,16.21A.61.61,0,1,0,17,15.6.61.61,0,0,0,16.41,16.21Z" transform="translate(-7.36 -5.36)"/><path class="cls-12" d="M16.74,16.21a.28.28,0,0,0,.56,0,.28.28,0,0,0-.56,0Z" transform="translate(-7.36 -5.36)"/><path class="cls-2" d="M16.51,16a.22.22,0,0,0,.23.22.22.22,0,0,0,0-.44A.22.22,0,0,0,16.51,16Z" transform="translate(-7.36 -5.36)"/><path class="cls-2" d="M17,15.89a.13.13,0,0,0,.14.13.13.13,0,1,0,0-.26A.13.13,0,0,0,17,15.89Z" transform="translate(-7.36 -5.36)"/><path class="cls-9" d="M18.36,14s-3.17-.52-3.45,1A5.23,5.23,0,0,1,17,14.7l1.52.08S18.64,14.26,18.36,14Z" transform="translate(-7.36 -5.36)"/><path class="cls-2" d="M21.54,21.47c-2,.12-2.65,0-3.95,0C17.59,21.5,19.29,23.85,21.54,21.47Z" transform="translate(-7.36 -5.36)"/><path class="cls-10" d="M21.54,21.5l-1,.1c-.32,0-.65,0-1,.07l-1,0-1,0,.19-.38a1.45,1.45,0,0,0,.17.19l.2.17a3,3,0,0,0,.44.28,2.64,2.64,0,0,0,.47.17,2,2,0,0,0,.48.07,2.22,2.22,0,0,0,1-.22,3.29,3.29,0,0,0,.49-.26,4.9,4.9,0,0,0,.48-.31Zm0,0a3.34,3.34,0,0,1-.36.48,2.52,2.52,0,0,1-.45.41,2.3,2.3,0,0,1-1.18.45,2.42,2.42,0,0,1-.66-.06,2.69,2.69,0,0,1-.6-.27,2.63,2.63,0,0,1-.49-.39,2.28,2.28,0,0,1-.22-.22,2.73,2.73,0,0,1-.2-.25v0a.23.23,0,0,1,.2-.36l1,0,1,.06c.32,0,.65.05,1,.05l1,0s0,0,0,0v0Z" transform="translate(-7.36 -5.36)"/><path class="cls-10" d="M19,23a2.36,2.36,0,0,0,1.19,0A.72.72,0,0,1,19,23Z" transform="translate(-7.36 -5.36)"/><path class="cls-9" d="M19.48,20.82a2.6,2.6,0,0,0-3.22.34l-.75,1,1,.9s.93-2.45,2.76-1.71l.23.05Z" transform="translate(-7.36 -5.36)"/><path class="cls-9" d="M19.44,20.82a2.55,2.55,0,0,1,3.22.34l.75,1-1,.9s-.93-2.45-2.76-1.71l-.23.05Z" transform="translate(-7.36 -5.36)"/><polygon class="cls-4" points="25.01 34.31 25 34.13 20.05 34.13 20.05 34.31 25.01 34.31"/><polygon class="cls-4" points="4.28 34.31 4.28 33.57 0.13 33.59 0.02 34.31 4.28 34.31"/><path class="cls-9" d="M25.62,6.79c-1-1.32-4.68-1.42-5.79-1.42-1.56-.06-4.46.2-6.26,1.57-1.91,2.81-1.26,8.64-1.26,8.64l.48,1.21L13,18h.33s-.65-4,.62-5.13c0,0,.25-3,1.65-3.42a12,12,0,0,1,4-.44,20.32,20.32,0,0,1,4.08.25c1.49.24,1.59,3.61,1.59,3.61C26.45,14,25.8,18,25.8,18h.33l.18-1.21.47-1.34S27.74,9.75,25.62,6.79Z" transform="translate(-7.36 -5.36)"/><path class="cls-9" d="M19.51,9Z" transform="translate(-7.36 -5.36)"/></svg>