<svg xmlns="http://www.w3.org/2000/svg" viewBox="0 0 24.49 33.6"><defs><style>.cls-1{isolation:isolate;}.cls-2{fill:#f5a674;}.cls-16,.cls-3{fill:#d9d9d9;}.cls-3,.cls-7{mix-blend-mode:multiply;}.cls-4{fill:#f7ba93;}.cls-5{fill:#fff;}.cls-6{fill:#00afb0;}.cls-7{fill:#c6c6c5;}.cls-8{fill:#002738;}.cls-9{fill:#003346;}.cls-10{fill:#cb8864;}.cls-11{fill:#30302f;}.cls-12{fill:#070707;}.cls-13{fill:#d99568;}.cls-14{fill:#d08f64;}.cls-15{fill:#2d2d2d;}</style></defs><g class="cls-1"><g id="Layer_1" data-name="Layer 1"><rect class="cls-2" x="10.09" y="23.1" width="4.11" height="2.45"/><path class="cls-3" d="M20.09,31a2.16,2.16,0,0,1-1.69-1.76.85.85,0,0,1,0-.36h-.94v2.45H21.6v-.31A2.76,2.76,0,0,1,20.09,31Z" transform="translate(-7.39 -5.82)"/><path class="cls-4" d="M31.89,39.42c-.07-2.57-.66-4.61-2.84-5.39-2.49-.89-7.34-2.76-7.34-2.76H17.57S12.72,33.14,10.23,34c-2.18.78-2.77,2.82-2.84,5.39Z" transform="translate(-7.39 -5.82)"/><path class="cls-5" d="M31.89,39.42c-.07-2.57-.66-4.61-2.84-5.39-2.49-.89-7.34-2.76-7.34-2.76H17.57S12.72,33.14,10.23,34c-2.18.78-2.77,2.82-2.84,5.39Z" transform="translate(-7.39 -5.82)"/><path class="cls-6" d="M18.78,34.48a.18.18,0,0,1,.06-.07l-.06.07-.13,4.94h2l-.19-4.94.4-1.83a.9.9,0,0,0,0-.87.87.87,0,0,0-.54-.45,4,4,0,0,0-1.1,0,.92.92,0,0,0-.86.34.89.89,0,0,0-.06,1Z" transform="translate(-7.39 -5.82)"/><path class="cls-7" d="M18.71,34.19s1.21-.62,1.79.29a1.77,1.77,0,0,0-1.73,0Z" transform="translate(-7.39 -5.82)"/><path class="cls-8" d="M31.89,39.42c-.07-2.57-.66-4.61-2.84-5.39-2.49-.89-5.41-2-5.41-2l-1.58,7.42Z" transform="translate(-7.39 -5.82)"/><path class="cls-8" d="M17.34,39.42,15.69,32s-3,1.15-5.46,2c-2.18.78-2.77,2.82-2.84,5.39Z" transform="translate(-7.39 -5.82)"/><polygon class="cls-7" points="12.25 25.44 10.27 30.27 8.29 26.16 12.25 25.44"/><path class="cls-5" d="M17.49,30.91A15.94,15.94,0,0,1,15.69,32l1.89,3.25a29.08,29.08,0,0,1,2.06-4Z" transform="translate(-7.39 -5.82)"/><polygon class="cls-7" points="12.23 25.44 14.21 30.27 16.18 26.16 12.23 25.44"/><path class="cls-5" d="M21.77,30.91A17.52,17.52,0,0,0,23.57,32l-1.89,3.25a29.08,29.08,0,0,0-2.06-4Z" transform="translate(-7.39 -5.82)"/><path class="cls-9" d="M14,37.29s1.68.14,1.15.69l-2.32.81.38.63h4.12L15.69,32,12.22,33.3l.16,2.79A1.21,1.21,0,0,0,14,37.29Z" transform="translate(-7.39 -5.82)"/><path class="cls-9" d="M26.09,39.42l.37-.63L24.13,38c-.52-.55,1.15-.69,1.15-.69a1.21,1.21,0,0,0,1.63-1.2l.17-2.79L23.61,32,22,39.42Z" transform="translate(-7.39 -5.82)"/><path class="cls-2" d="M25.28,21.11c-.09,1.31.51,2.41,1.33,2.46s1.55-1,1.64-2.27-.52-2.4-1.34-2.45S25.36,19.81,25.28,21.11Z" transform="translate(-7.39 -5.82)"/><path class="cls-10" d="M26.44,20.65a1.35,1.35,0,0,1,0-.2,1.53,1.53,0,0,1,.13-.47c.08-.18.21-.4.42-.43h.15l.08,0,.07,0a.73.73,0,0,1,.23.26,1.42,1.42,0,0,1,.14.36,1.59,1.59,0,0,1,.06.36c0,.13,0,.27,0,.38s0,.23,0,.33,0,.2,0,.28,0,.16,0,.22l0,.19.08-.17a2.2,2.2,0,0,0,.09-.21c0-.08.07-.18.1-.28s.05-.22.08-.34,0-.25,0-.38a1.57,1.57,0,0,0,0-.44,1.72,1.72,0,0,0-.16-.43,1.1,1.1,0,0,0-.33-.35l-.13-.06-.11,0a1,1,0,0,0-.24,0,.6.6,0,0,0-.37.26,1,1,0,0,0-.15.34,1.63,1.63,0,0,0,0,.52A1.12,1.12,0,0,0,26.44,20.65Z" transform="translate(-7.39 -5.82)"/><path class="cls-10" d="M26.44,20.65s-.09-.13.43-.21c0,0,.6,0,.34.7a1.76,1.76,0,0,0-.12.45c0,.22.11.5,0,.7a.4.4,0,0,1-.69-.12c-.06-.21.17-.6.27-.76A.51.51,0,0,0,26.44,20.65Z" transform="translate(-7.39 -5.82)"/><path class="cls-10" d="M26.38,22.15a.12.12,0,0,0,0,0,.44.44,0,0,0-.06.12.31.31,0,0,0,0,.1.17.17,0,0,0,0,.1l0,.11a.6.6,0,0,0,.06.11.31.31,0,0,0,.07.09l.09.07a.44.44,0,0,0,.17.08l.19,0a.65.65,0,0,0-.11-.15l-.05-.06,0-.07-.05-.06a.25.25,0,0,1,0-.07,1,1,0,0,1-.09-.13l0-.07,0-.07C26.4,22.23,26.38,22.15,26.38,22.15Z" transform="translate(-7.39 -5.82)"/><path class="cls-2" d="M11.53,16.48s-.94,9.81,3.86,12.89a4.1,4.1,0,0,0,5.28.29s4.27-2.3,5-4.06c0,0,3.69-15.91-5.26-16.43C20.38,9.17,12.73,7.4,11.53,16.48Z" transform="translate(-7.39 -5.82)"/><path class="cls-11" d="M20.59,18.89a.77.77,0,1,0,.77-.77A.76.76,0,0,0,20.59,18.89Z" transform="translate(-7.39 -5.82)"/><path class="cls-5" d="M21.32,18.39c-.07.09,0,.26.2.39s.36.15.42.07,0-.26-.2-.39S21.38,18.31,21.32,18.39Z" transform="translate(-7.39 -5.82)"/><path class="cls-12" d="M19.89,16.3a.59.59,0,0,0-.37.49s0,.45.39.41c0,0,2.76-.35,3.83.33C23.74,17.53,23.61,15.51,19.89,16.3Z" transform="translate(-7.39 -5.82)"/><path class="cls-11" d="M15.94,18.89a.77.77,0,1,1-.77-.77A.76.76,0,0,1,15.94,18.89Z" transform="translate(-7.39 -5.82)"/><path class="cls-5" d="M15.22,18.39c.06.09,0,.26-.2.39s-.37.15-.43.07,0-.26.2-.39S15.15,18.31,15.22,18.39Z" transform="translate(-7.39 -5.82)"/><path d="M16.64,16.3a.59.59,0,0,1,.37.49s0,.45-.38.41c0,0-2.77-.35-3.84.33C12.79,17.53,12.92,15.51,16.64,16.3Z" transform="translate(-7.39 -5.82)"/><path class="cls-13" d="M17.7,20.66a1.78,1.78,0,0,1,0,.26,5.78,5.78,0,0,1-.05.63,5.18,5.18,0,0,1-.19.78l-.06.2,0,.11v0h0c0-.09,0,0,0,0h0v0a1.77,1.77,0,0,0-.05.32,1.7,1.7,0,0,0,0,.25.49.49,0,0,0,.06.17,1,1,0,0,0,.51.28c.22.07.42.1.57.14l.24.05-.19.16a3.06,3.06,0,0,1-.6.29,2,2,0,0,1-.47.07,1.22,1.22,0,0,1-.61-.15,1.25,1.25,0,0,1-.54-.53A1.84,1.84,0,0,1,16.1,23a2.28,2.28,0,0,1,0-.64l0-.09,0-.05h0v0l.05-.12a2.26,2.26,0,0,0,.11-.22,3.17,3.17,0,0,1,.55-.71,2.81,2.81,0,0,1,.53-.39A1,1,0,0,1,17.7,20.66Z" transform="translate(-7.39 -5.82)"/><path class="cls-14" d="M15.7,25.34a5.69,5.69,0,0,1,.81-.17c.25,0,.53-.08.84-.1s.63,0,1,0a10.57,10.57,0,0,1,1.79.13,5.69,5.69,0,0,1,.81.17,4.85,4.85,0,0,1-.81.18,11.72,11.72,0,0,1-1.79.13c-.33,0-.66,0-1,0s-.59-.06-.84-.1A4.85,4.85,0,0,1,15.7,25.34Z" transform="translate(-7.39 -5.82)"/><path class="cls-15" d="M24.77,7c1,.36,2.72,1.08,2.86,4.72a38.55,38.55,0,0,1-.35,7.18c-.71-.11-.88,0-.88,0L26.22,22h-.47V18.62c0-2.18-1.62-2.19-1.62-2.19a4.3,4.3,0,0,0,0-3.63c-.66-1.6-9.24-1.09-9.24-1.09-3.27.07-2.43,4-2.43,4a.93.93,0,0,0-.94.9,13.49,13.49,0,0,0-.07,2.29s-2-6.54.26-9.86C11.72,9,14.84,3.47,24.77,7Z" transform="translate(-7.39 -5.82)"/><path class="cls-15" d="M24.51,25.34A5.73,5.73,0,0,0,25.75,22h.47c-.06,1-.58,3.6-.58,3.6-.7,1.76-5,4.06-5,4.06a4.1,4.1,0,0,1-5.28-.29c-2.56-1.64-3.49-5.2-3.79-8.16a24,24,0,0,0,1.74,4.89s1.88,2.81,4.73,2.73A17.09,17.09,0,0,0,24.51,25.34Z" transform="translate(-7.39 -5.82)"/><path class="cls-5" d="M16.05,25.34h4.31s-.08,1.6-2.15,1.76A2,2,0,0,1,16.05,25.34Z" transform="translate(-7.39 -5.82)"/><path class="cls-14" d="M16.11,25.61a2,2,0,0,0,.1.23,2,2,0,0,0,.38.46,1.37,1.37,0,0,0,.3.22,2.27,2.27,0,0,0,.39.16,3.12,3.12,0,0,0,.44.09l.24,0h.23a3.41,3.41,0,0,0,.92-.15,2.09,2.09,0,0,0,.71-.38,2,2,0,0,0,.4-.45,2,2,0,0,0,.14-.21v.07s0,.11,0,.19a1.64,1.64,0,0,1-.26.64,2,2,0,0,1-.76.65,2.63,2.63,0,0,1-1.12.25h-.29l-.28,0a2.51,2.51,0,0,1-.55-.17,1.83,1.83,0,0,1-.24-.13l-.22-.16a1.74,1.74,0,0,1-.31-.37,1.58,1.58,0,0,1-.22-.66A.76.76,0,0,1,16.11,25.61Z" transform="translate(-7.39 -5.82)"/><path class="cls-16" d="M16.66,26.1a4.5,4.5,0,0,1,.48-.09,9.48,9.48,0,0,1,2.13,0,4.5,4.5,0,0,1,.48.09,4.5,4.5,0,0,1-.48.09,9.48,9.48,0,0,1-2.13,0A4.5,4.5,0,0,1,16.66,26.1Z" transform="translate(-7.39 -5.82)"/><path class="cls-16" d="M17.56,25.61a1.5,1.5,0,0,1,.08.17,1.06,1.06,0,0,1,.07.37,1.12,1.12,0,0,1-.07.38,1,1,0,0,1-.08.16.65.65,0,0,1-.09-.16,1.12,1.12,0,0,1-.07-.38,1.06,1.06,0,0,1,.07-.37A.89.89,0,0,1,17.56,25.61Z" transform="translate(-7.39 -5.82)"/><path class="cls-16" d="M18.6,25.61a.89.89,0,0,1,.09.17,1.06,1.06,0,0,1,.06.37,1.12,1.12,0,0,1-.06.38.65.65,0,0,1-.09.16.65.65,0,0,1-.09-.16,1.12,1.12,0,0,1-.06-.38,1.06,1.06,0,0,1,.06-.37A.89.89,0,0,1,18.6,25.61Z" transform="translate(-7.39 -5.82)"/><path class="cls-15" d="M13.57,25.07l-.72,1a5.39,5.39,0,0,1,.3.52,5.4,5.4,0,0,1,.47.8l.23.22s1.23-3.22,3.64-2.24l.3.06,0-.8S15.37,23.11,13.57,25.07Z" transform="translate(-7.39 -5.82)"/><path class="cls-15" d="M17.77,24.62a3.37,3.37,0,0,1,4.25.45l1,1.35L21.73,27.6s-1.22-3.22-3.63-2.24l-.31.06Z" transform="translate(-7.39 -5.82)"/></g></g></svg>