<svg xmlns="http://www.w3.org/2000/svg" viewBox="0 0 24.38 33.44"><defs><style>.cls-1{isolation:isolate;}.cls-2{fill:#f5a674;}.cls-15,.cls-3{fill:#d9d9d9;}.cls-3,.cls-7{mix-blend-mode:multiply;}.cls-4{fill:#f7ba93;}.cls-5{fill:#fff;}.cls-6{fill:#00afb0;}.cls-7{fill:#c6c6c5;}.cls-8{fill:#002738;}.cls-9{fill:#003346;}.cls-10{fill:#cb8864;}.cls-11{fill:#30302f;}.cls-12{fill:#1e1c1b;}.cls-13{fill:#d99568;}.cls-14{fill:#d08f64;}</style></defs><g class="cls-1"><g id="Layer_1" data-name="Layer 1"><rect class="cls-2" x="10.04" y="22.99" width="4.09" height="2.43"/><path class="cls-3" d="M20.29,31.7A2.14,2.14,0,0,1,18.61,30a.85.85,0,0,1,0-.36H17.7V32h4.09v-.31A2.73,2.73,0,0,1,20.29,31.7Z" transform="translate(-7.66 -6.61)"/><path class="cls-4" d="M32,40c-.06-2.55-.65-4.58-2.82-5.36-2.48-.89-7.31-2.75-7.31-2.75H17.78s-4.82,1.86-7.3,2.75c-2.17.78-2.76,2.81-2.82,5.36Z" transform="translate(-7.66 -6.61)"/><path class="cls-5" d="M32,40c-.06-2.55-.65-4.58-2.82-5.36-2.48-.89-7.31-2.75-7.31-2.75H17.78s-4.82,1.86-7.3,2.75c-2.17.78-2.76,2.81-2.82,5.36Z" transform="translate(-7.66 -6.61)"/><path class="cls-6" d="M19,35.12l.06-.06-.06.06L18.86,40h2l-.19-4.92.4-1.82a.88.88,0,0,0,0-.86A.9.9,0,0,0,20.6,32a4,4,0,0,0-1.1,0,.9.9,0,0,0-.85.34.87.87,0,0,0-.06,1Z" transform="translate(-7.66 -6.61)"/><path class="cls-7" d="M18.92,34.84s1.2-.62,1.78.28a1.79,1.79,0,0,0-1.72,0Z" transform="translate(-7.66 -6.61)"/><path class="cls-8" d="M32,40c-.06-2.55-.65-4.58-2.82-5.36-2.48-.89-5.39-2-5.39-2L22.26,40Z" transform="translate(-7.66 -6.61)"/><path class="cls-8" d="M17.55,40l-1.64-7.39s-2.95,1.14-5.43,2c-2.17.78-2.76,2.81-2.82,5.36Z" transform="translate(-7.66 -6.61)"/><polygon class="cls-7" points="12.19 25.32 10.22 30.12 8.25 26.04 12.19 25.32"/><path class="cls-5" d="M17.7,31.57a16.12,16.12,0,0,1-1.79,1.08l1.89,3.23a28.91,28.91,0,0,1,2-4Z" transform="translate(-7.66 -6.61)"/><polygon class="cls-7" points="12.17 25.32 14.14 30.12 16.1 26.04 12.17 25.32"/><path class="cls-5" d="M22,31.57a16.12,16.12,0,0,0,1.79,1.08l-1.89,3.23a28.91,28.91,0,0,0-2-4Z" transform="translate(-7.66 -6.61)"/><path class="cls-9" d="M14.24,37.93s1.67.13,1.15.68l-2.32.8.38.63h4.1l-1.64-7.39L12.45,34l.17,2.78A1.2,1.2,0,0,0,14.24,37.93Z" transform="translate(-7.66 -6.61)"/><path class="cls-9" d="M26.26,40l.37-.63-2.32-.8c-.52-.55,1.15-.68,1.15-.68a1.2,1.2,0,0,0,1.62-1.2L27.25,34l-3.46-1.3L22.24,40Z" transform="translate(-7.66 -6.61)"/><path class="cls-2" d="M25.45,21.82c-.08,1.3.51,2.4,1.33,2.45s1.55-1,1.63-2.26-.51-2.39-1.33-2.44S25.54,20.52,25.45,21.82Z" transform="translate(-7.66 -6.61)"/><path class="cls-10" d="M26.61,21.36a1.29,1.29,0,0,1,0-.19,1.65,1.65,0,0,1,.13-.48c.08-.18.21-.39.41-.42h.16l.08,0,.06,0a.53.53,0,0,1,.23.26,1.54,1.54,0,0,1,.15.35,1.64,1.64,0,0,1,0,.37c0,.13,0,.26,0,.37s0,.23,0,.33,0,.2-.05.28,0,.16,0,.22,0,.19,0,.19a1.16,1.16,0,0,0,.09-.18c0-.05.06-.12.09-.2s.06-.18.09-.28a2.79,2.79,0,0,0,.09-.34c0-.13,0-.25,0-.38a1.32,1.32,0,0,0,0-.44,1.35,1.35,0,0,0-.16-.42.89.89,0,0,0-.32-.35l-.13-.06-.11,0a1.06,1.06,0,0,0-.25,0,.57.57,0,0,0-.36.26.84.84,0,0,0-.14.33,1.48,1.48,0,0,0,0,.53A1.09,1.09,0,0,0,26.61,21.36Z" transform="translate(-7.66 -6.61)"/><path class="cls-10" d="M26.61,21.36s-.09-.13.43-.21c0,0,.6,0,.34.7a1.76,1.76,0,0,0-.12.45c0,.21.11.49,0,.7a.4.4,0,0,1-.69-.12c-.06-.21.17-.6.27-.77A.5.5,0,0,0,26.61,21.36Z" transform="translate(-7.66 -6.61)"/><path class="cls-10" d="M26.55,22.85a.07.07,0,0,0,0,0,.32.32,0,0,0-.07.13.25.25,0,0,0,0,.09.4.4,0,0,0,0,.11l0,.11a.53.53,0,0,0,.06.1.31.31,0,0,0,.07.09l.09.07a.33.33,0,0,0,.17.08l.19,0a.65.65,0,0,0-.11-.15l-.05-.06,0-.06-.06-.07s0,0,0-.06a.39.39,0,0,1-.08-.14.16.16,0,0,1,0-.07s0,0,0-.06A1.16,1.16,0,0,1,26.55,22.85Z" transform="translate(-7.66 -6.61)"/><path class="cls-2" d="M11.77,17.22S10.84,27,15.62,30a4.07,4.07,0,0,0,5.25.29s4.25-2.29,4.95-4c0,0,3.67-15.84-5.24-16.35C20.58,9.94,13,8.18,11.77,17.22Z" transform="translate(-7.66 -6.61)"/><path class="cls-11" d="M20.79,19.61a.77.77,0,0,0,1.54,0,.77.77,0,0,0-1.54,0Z" transform="translate(-7.66 -6.61)"/><path class="cls-5" d="M21.51,19.12c-.06.09,0,.26.2.38s.36.15.43.07,0-.26-.2-.38S21.57,19,21.51,19.12Z" transform="translate(-7.66 -6.61)"/><path class="cls-12" d="M20.09,17a.59.59,0,0,0-.37.49s0,.44.39.4c0,0,2.75-.35,3.82.33C23.93,18.26,23.8,16.24,20.09,17Z" transform="translate(-7.66 -6.61)"/><path class="cls-11" d="M16.17,19.61a.77.77,0,1,1-.77-.77A.77.77,0,0,1,16.17,19.61Z" transform="translate(-7.66 -6.61)"/><path class="cls-5" d="M15.44,19.12c.06.09,0,.26-.2.38s-.36.15-.42.07,0-.26.2-.38S15.38,19,15.44,19.12Z" transform="translate(-7.66 -6.61)"/><path class="cls-12" d="M16.86,17a.57.57,0,0,1,.37.49s0,.44-.39.4c0,0-2.75-.35-3.81.33C13,18.26,13.16,16.24,16.86,17Z" transform="translate(-7.66 -6.61)"/><path class="cls-13" d="M17.91,21.37s0,.1,0,.26a6.19,6.19,0,0,1-.06.63,6.49,6.49,0,0,1-.18.77l-.06.21,0,.1v0h0c0-.08,0,0,0,0h0v0a1.17,1.17,0,0,0,0,.32,1,1,0,0,0,0,.26.35.35,0,0,0,.06.16,1,1,0,0,0,.5.28c.22.07.42.1.57.14l.24,0-.2.15a2,2,0,0,1-.59.29,1.61,1.61,0,0,1-.47.07,1.26,1.26,0,0,1-1.14-.68,1.74,1.74,0,0,1-.19-.68,2.64,2.64,0,0,1,.05-.63l0-.09V23h0v0l.06-.12c0-.08.07-.15.1-.22a2.73,2.73,0,0,1,.55-.71,2.13,2.13,0,0,1,.53-.38A1.28,1.28,0,0,1,17.91,21.37Z" transform="translate(-7.66 -6.61)"/><path class="cls-14" d="M15.92,26a5.69,5.69,0,0,1,.81-.17c.24,0,.53-.07.83-.1s.63,0,1,0a11.58,11.58,0,0,1,1.78.13,5.69,5.69,0,0,1,.81.17,4.85,4.85,0,0,1-.81.18,11.58,11.58,0,0,1-1.78.13c-.33,0-.65,0-1,0s-.59-.05-.83-.09A4.85,4.85,0,0,1,15.92,26Z" transform="translate(-7.66 -6.61)"/><path class="cls-12" d="M24.94,7.77c1,.37,2.72,1.08,2.86,4.7a39.23,39.23,0,0,1-.35,7.15c-.71-.11-.88,0-.88,0l-.18,3.09h-.46V19.34c0-2.17-1.62-2.17-1.62-2.17a4.27,4.27,0,0,0,0-3.62c-.66-1.6-9.19-1.08-9.19-1.08-3.26.06-2.42,4-2.42,4a.93.93,0,0,0-.94.89,15.8,15.8,0,0,0-.07,2.28s-2-6.5.26-9.81C12,9.8,15.07,4.26,24.94,7.77Z" transform="translate(-7.66 -6.61)"/><path class="cls-5" d="M16.27,26h4.29s-.08,1.59-2.14,1.75A2,2,0,0,1,16.27,26Z" transform="translate(-7.66 -6.61)"/><path class="cls-14" d="M16.33,26.3a1.55,1.55,0,0,0,.1.22,1.86,1.86,0,0,0,.38.47,1.79,1.79,0,0,0,.3.22l.38.16.44.08.24,0h.24a3.39,3.39,0,0,0,.91-.14A2.12,2.12,0,0,0,20,27a2,2,0,0,0,.41-.45l.13-.21v.07s0,.11,0,.18a1.59,1.59,0,0,1-.26.64,1.77,1.77,0,0,1-.76.65,2.55,2.55,0,0,1-1.11.25.75.75,0,0,1-.15,0h-.14l-.28,0a2.43,2.43,0,0,1-.54-.17l-.25-.13-.21-.16a1.53,1.53,0,0,1-.31-.37,1.35,1.35,0,0,1-.21-.65A1,1,0,0,1,16.33,26.3Z" transform="translate(-7.66 -6.61)"/><path class="cls-15" d="M16.87,26.79s.2-.05.49-.09a8.06,8.06,0,0,1,1.06-.07,8.18,8.18,0,0,1,1.06.07c.28,0,.48.09.48.09l-.48.08a8.18,8.18,0,0,1-1.06.07,8.06,8.06,0,0,1-1.06-.07Z" transform="translate(-7.66 -6.61)"/><path class="cls-15" d="M17.77,26.3a.89.89,0,0,1,.09.17,1.17,1.17,0,0,1,0,.74.89.89,0,0,1-.09.17.89.89,0,0,1-.09-.17,1.17,1.17,0,0,1,0-.74A.89.89,0,0,1,17.77,26.3Z" transform="translate(-7.66 -6.61)"/><path class="cls-15" d="M18.81,26.3a.89.89,0,0,1,.09.17,1.17,1.17,0,0,1,0,.74.89.89,0,0,1-.09.17.89.89,0,0,1-.09-.17,1,1,0,0,1,0-.74A.89.89,0,0,1,18.81,26.3Z" transform="translate(-7.66 -6.61)"/></g></g></svg>