<svg xmlns="http://www.w3.org/2000/svg" viewBox="0 0 22.77 34.77"><defs><style>.cls-1{isolation:isolate;}.cls-2{fill:#f5a674;}.cls-3{fill:#f7ba93;}.cls-4{fill:#fff;}.cls-5{fill:#00afb0;}.cls-6{fill:#c6c6c5;mix-blend-mode:multiply;}.cls-7{fill:#2c1400;}.cls-8{fill:#351a02;}.cls-9{fill:#cb8864;}.cls-10{fill:#30302f;}.cls-11{fill:#141211;}.cls-12{fill:#d99568;}.cls-13{fill:#d08f64;}.cls-14{fill:#d9d9d9;}</style></defs><g class="cls-1"><g id="Layer_1" data-name="Layer 1"><rect class="cls-2" x="9.38" y="25.01" width="3.82" height="2.27"/><path class="cls-3" d="M31.32,39.92c-.06-2.39-.61-4.29-2.64-5-2.31-.83-6.82-2.57-6.82-2.57H18s-4.51,1.74-6.83,2.57c-2,.73-2.57,2.63-2.63,5Z" transform="translate(-8.55 -5.15)"/><path class="cls-4" d="M31.32,39.92c-.06-2.39-.61-4.29-2.64-5-2.31-.83-6.82-2.57-6.82-2.57H18s-4.51,1.74-6.83,2.57c-2,.73-2.57,2.63-2.63,5Z" transform="translate(-8.55 -5.15)"/><path class="cls-5" d="M19.13,35.32l.06-.06-.06.06L19,39.92h1.9l-.17-4.6.37-1.7a.86.86,0,0,0,0-.81.81.81,0,0,0-.5-.42,3.92,3.92,0,0,0-1,0,.85.85,0,0,0-.79.33.81.81,0,0,0-.06.94Z" transform="translate(-8.55 -5.15)"/><path class="cls-6" d="M19.07,35.06s1.12-.58,1.66.26a1.65,1.65,0,0,0-1.6,0Z" transform="translate(-8.55 -5.15)"/><path class="cls-7" d="M31.32,39.92c-.06-2.39-.61-4.29-2.64-5-2.31-.83-5-1.88-5-1.88l-1.46,6.9Z" transform="translate(-8.55 -5.15)"/><path class="cls-7" d="M17.79,39.92,16.26,33s-2.76,1.07-5.08,1.9c-2,.73-2.57,2.63-2.63,5Z" transform="translate(-8.55 -5.15)"/><polygon class="cls-6" points="11.39 27.19 9.55 31.67 7.71 27.86 11.39 27.19"/><path class="cls-4" d="M17.93,32a15.42,15.42,0,0,1-1.67,1L18,36a27.47,27.47,0,0,1,1.91-3.7Z" transform="translate(-8.55 -5.15)"/><polygon class="cls-6" points="11.37 27.19 13.21 31.67 15.04 27.86 11.37 27.19"/><path class="cls-4" d="M21.92,32a14,14,0,0,0,1.67,1l-1.76,3a27.47,27.47,0,0,0-1.91-3.7Z" transform="translate(-8.55 -5.15)"/><path class="cls-8" d="M14.7,37.94s1.56.12,1.07.63l-2.16.75.35.6h3.83L16.26,33,13,34.23l.16,2.59A1.12,1.12,0,0,0,14.7,37.94Z" transform="translate(-8.55 -5.15)"/><path class="cls-8" d="M25.93,39.92l.34-.6-2.16-.75c-.49-.51,1.07-.63,1.07-.63a1.12,1.12,0,0,0,1.51-1.12l.16-2.59L23.62,33l-1.45,6.92Z" transform="translate(-8.55 -5.15)"/><path class="cls-2" d="M25.21,23c-.08,1.22.48,2.25,1.25,2.3s1.46-.9,1.53-2.12-.48-2.26-1.24-2.31S25.29,21.73,25.21,23Z" transform="translate(-8.55 -5.15)"/><path class="cls-9" d="M26.3,22.51a1.11,1.11,0,0,1,0-.18,1.79,1.79,0,0,1,.12-.45.59.59,0,0,1,.39-.39H27l.08,0,.06,0a.62.62,0,0,1,.21.24,1.43,1.43,0,0,1,.14.34,2,2,0,0,1,.05.34c0,.12,0,.25,0,.36l0,.3c0,.1,0,.19-.05.27s0,.14,0,.2l0,.18.08-.16a2.07,2.07,0,0,0,.08-.2l.1-.26c0-.09.05-.2.07-.32s0-.23,0-.36a1.43,1.43,0,0,0,0-.41,1.49,1.49,0,0,0-.15-.4.89.89,0,0,0-.31-.33l-.12-.05-.1,0h-.23a.56.56,0,0,0-.34.25.8.8,0,0,0-.14.32,1.5,1.5,0,0,0,0,.49A.85.85,0,0,0,26.3,22.51Z" transform="translate(-8.55 -5.15)"/><path class="cls-9" d="M26.3,22.51s-.09-.12.41-.19c0,0,.56,0,.32.66a1.48,1.48,0,0,0-.12.41c0,.21.11.47,0,.66a.39.39,0,0,1-.66-.11c-.05-.2.16-.56.26-.72A.47.47,0,0,0,26.3,22.51Z" transform="translate(-8.55 -5.15)"/><path class="cls-9" d="M26.25,23.92l0,0-.06.12a.28.28,0,0,0,0,.09.34.34,0,0,0,0,.1l0,.1a.93.93,0,0,0,0,.1l.07.09.09.06a.37.37,0,0,0,.16.07.43.43,0,0,0,.17,0,.61.61,0,0,0-.09-.14s0,0-.05,0l-.05-.06-.05-.06s0,0,0-.07a.47.47,0,0,1-.07-.12.09.09,0,0,1,0-.06s0-.05,0-.07Z" transform="translate(-8.55 -5.15)"/><path class="cls-2" d="M12.33,18.61S11.46,27.8,16,30.69A3.86,3.86,0,0,0,20.9,31s4-2.16,4.66-3.81c0,0,3.46-14.91-4.94-15.39C20.62,11.76,13.46,10.1,12.33,18.61Z" transform="translate(-8.55 -5.15)"/><path class="cls-10" d="M20.82,20.87a.73.73,0,0,0,.73.72.72.72,0,0,0,.72-.72.73.73,0,0,0-.72-.73A.73.73,0,0,0,20.82,20.87Z" transform="translate(-8.55 -5.15)"/><path class="cls-4" d="M21.5,20.4c-.05.08,0,.24.19.36s.34.15.4.07,0-.25-.19-.36S21.56,20.32,21.5,20.4Z" transform="translate(-8.55 -5.15)"/><path class="cls-11" d="M20.17,18.44a.55.55,0,0,0-.35.46s0,.42.37.39c0,0,2.59-.34,3.59.31C23.78,19.6,23.65,17.7,20.17,18.44Z" transform="translate(-8.55 -5.15)"/><path class="cls-10" d="M16.47,20.87a.72.72,0,1,1-1.44,0,.72.72,0,1,1,1.44,0Z" transform="translate(-8.55 -5.15)"/><path class="cls-4" d="M15.79,20.4c.06.08,0,.24-.19.36s-.34.15-.4.07,0-.25.19-.36S15.73,20.32,15.79,20.4Z" transform="translate(-8.55 -5.15)"/><path class="cls-11" d="M17.13,18.44a.55.55,0,0,1,.34.46s0,.42-.36.39c0,0-2.59-.34-3.59.31C13.52,19.6,13.64,17.7,17.13,18.44Z" transform="translate(-8.55 -5.15)"/><path class="cls-12" d="M18.11,22.52s0,.1,0,.25a4.69,4.69,0,0,1-.05.58,6,6,0,0,1-.17.74l-.06.19,0,.1v0h0s0,0,0,0h0v0a1.57,1.57,0,0,0-.05.3c0,.1,0,.18,0,.24a.47.47,0,0,0,.06.15.88.88,0,0,0,.47.26,4.52,4.52,0,0,0,.54.13l.22.05-.18.15a2.08,2.08,0,0,1-.56.27,1.76,1.76,0,0,1-.44.07,1.29,1.29,0,0,1-.57-.14,1.23,1.23,0,0,1-.51-.5,1.61,1.61,0,0,1-.17-.65,1.65,1.65,0,0,1,.05-.59l0-.09,0,0v0l.05-.11a2,2,0,0,0,.1-.21,2.74,2.74,0,0,1,.51-.66,2.17,2.17,0,0,1,.5-.37Z" transform="translate(-8.55 -5.15)"/><path class="cls-13" d="M16.24,26.91a6.12,6.12,0,0,1,.76-.16,7.89,7.89,0,0,1,.79-.09c.28,0,.59,0,.89,0a10.34,10.34,0,0,1,1.68.13,4.78,4.78,0,0,1,.77.16,5.42,5.42,0,0,1-.77.17,11.71,11.71,0,0,1-1.68.12c-.3,0-.61,0-.89,0a7.89,7.89,0,0,1-.79-.09A5,5,0,0,1,16.24,26.91Z" transform="translate(-8.55 -5.15)"/><path class="cls-11" d="M25.2,10.33s2.09.41,2.22,3.82a36.9,36.9,0,0,1-.33,6.72c-.66-.1-.82,0-.82,0l-.18,2.91h-.43V20.61c0-2-1.52-2.05-1.52-2.05a4,4,0,0,0,0-3.4c-.62-1.5-8.65-1-8.65-1-3.07.06-2.28,3.74-2.28,3.74a.88.88,0,0,0-.89.84,14,14,0,0,0-.06,2.15s-1.85-6.13.24-9.24c0,0-1.47-3.65,4-6.48-.41.21.3,1.38.46,1.53,1,.91,2.39.68,3.61.61a5.82,5.82,0,0,1,.59,0A5.88,5.88,0,0,1,24,7.91S25.7,8.8,25.2,10.33Z" transform="translate(-8.55 -5.15)"/><path class="cls-11" d="M24.49,26.91s-1.78,2.36-2.94.22c0,0-.42-1.75-3.07-.76,0,0-1.86-.9-2.73.54,0,0-.89,1.9-1.71.71A22.12,22.12,0,0,1,12.4,23c.29,2.77,1.15,6.1,3.55,7.65A3.86,3.86,0,0,0,20.9,31s4-2.16,4.66-3.81c0,0,.48-2.42.53-3.37h-.43A8.07,8.07,0,0,1,24.49,26.91Z" transform="translate(-8.55 -5.15)"/><path class="cls-4" d="M16.57,26.91h4s-.08,1.49-2,1.65A1.91,1.91,0,0,1,16.57,26.91Z" transform="translate(-8.55 -5.15)"/><path class="cls-13" d="M16.62,27.16a1.25,1.25,0,0,0,.1.21,1.81,1.81,0,0,0,.35.44,2.16,2.16,0,0,0,.29.21,1.92,1.92,0,0,0,.36.14,2.7,2.7,0,0,0,.41.08,1.79,1.79,0,0,0,.23,0h.22a3.09,3.09,0,0,0,.86-.13,2.08,2.08,0,0,0,.66-.36,2,2,0,0,0,.38-.42l.13-.2v.07a1.16,1.16,0,0,1,0,.17,1.69,1.69,0,0,1-.24.6,1.83,1.83,0,0,1-.72.61,2.44,2.44,0,0,1-1,.24h-.28l-.26,0a2.4,2.4,0,0,1-.52-.16l-.22-.12-.2-.15a1.37,1.37,0,0,1-.3-.35,1.3,1.3,0,0,1-.2-.62A.93.93,0,0,1,16.62,27.16Z" transform="translate(-8.55 -5.15)"/><path class="cls-14" d="M17.14,27.62a3.16,3.16,0,0,1,.45-.08,9.22,9.22,0,0,1,1-.07,9.22,9.22,0,0,1,1,.07,3.16,3.16,0,0,1,.45.08l-.45.08a8.36,8.36,0,0,1-2,0Z" transform="translate(-8.55 -5.15)"/><path class="cls-14" d="M18,27.16s0,.07.08.16a1.05,1.05,0,0,1,0,.7l-.08.16A.68.68,0,0,1,17.9,28a.91.91,0,0,1,0-.7A.68.68,0,0,1,18,27.16Z" transform="translate(-8.55 -5.15)"/><path class="cls-14" d="M19,27.16s0,.07.08.16a1.05,1.05,0,0,1,0,.7l-.08.16a.68.68,0,0,1-.08-.16.91.91,0,0,1,0-.7A.68.68,0,0,1,19,27.16Z" transform="translate(-8.55 -5.15)"/></g></g></svg>