<svg xmlns="http://www.w3.org/2000/svg" viewBox="0 0 24.33 35.12"><defs><style>.cls-1{isolation:isolate;}.cls-2{fill:#f5a674;}.cls-3{fill:#f7ba93;}.cls-4{fill:#fff;}.cls-5{fill:#00afb0;}.cls-6{fill:#c6c6c5;mix-blend-mode:multiply;}.cls-7{fill:#002738;}.cls-8{fill:#003346;}.cls-9{fill:#30302f;}.cls-10{fill:#141210;}.cls-11{fill:#d99568;}.cls-12{fill:#d08f64;}.cls-13{fill:#51504f;}</style></defs><g class="cls-1"><g id="Layer_1" data-name="Layer 1"><rect class="cls-2" x="10.03" y="24.69" width="4.08" height="2.43"/><path class="cls-3" d="M32.66,39.89c-.06-2.56-.65-4.58-2.81-5.36-2.48-.89-7.3-2.74-7.3-2.74H18.44s-4.82,1.85-7.29,2.74c-2.17.78-2.75,2.8-2.82,5.36Z" transform="translate(-8.33 -4.77)"/><path class="cls-4" d="M32.66,39.89c-.06-2.56-.65-4.58-2.81-5.36-2.48-.89-7.3-2.74-7.3-2.74H18.44s-4.82,1.85-7.29,2.74c-2.17.78-2.75,2.8-2.82,5.36Z" transform="translate(-8.33 -4.77)"/><path class="cls-5" d="M19.64,35l.06-.07-.06.07-.13,4.91h2L21.35,35l.4-1.82a.9.9,0,0,0,0-.87.88.88,0,0,0-.54-.44,4,4,0,0,0-1.1,0,.91.91,0,0,0-.85.34.89.89,0,0,0-.06,1Z" transform="translate(-8.33 -4.77)"/><path class="cls-6" d="M19.57,34.69s1.2-.61,1.78.29a1.74,1.74,0,0,0-1.71,0Z" transform="translate(-8.33 -4.77)"/><path class="cls-7" d="M32.66,39.89c-.06-2.56-.65-4.58-2.81-5.36-2.48-.89-5.38-2-5.38-2L22.9,39.89Z" transform="translate(-8.33 -4.77)"/><path class="cls-7" d="M18.21,39.89,16.57,32.5s-3,1.14-5.42,2c-2.17.78-2.75,2.8-2.82,5.36Z" transform="translate(-8.33 -4.77)"/><polygon class="cls-6" points="12.16 27.02 10.2 31.81 8.24 27.73 12.16 27.02"/><path class="cls-4" d="M18.36,31.43a15.57,15.57,0,0,1-1.79,1.07l1.88,3.23a28.3,28.3,0,0,1,2.05-3.94Z" transform="translate(-8.33 -4.77)"/><polygon class="cls-6" points="12.15 27.02 14.11 31.81 16.07 27.73 12.15 27.02"/><path class="cls-4" d="M22.62,31.43A15.75,15.75,0,0,0,24.4,32.5l-1.88,3.23a29,29,0,0,0-2-3.94Z" transform="translate(-8.33 -4.77)"/><path class="cls-8" d="M14.9,37.77s1.67.14,1.15.68l-2.31.81.38.63h4.09L16.57,32.5l-3.45,1.31.17,2.77A1.19,1.19,0,0,0,14.9,37.77Z" transform="translate(-8.33 -4.77)"/><path class="cls-8" d="M26.9,39.89l.37-.63L25,38.45c-.53-.54,1.14-.68,1.14-.68a1.2,1.2,0,0,0,1.62-1.19l.17-2.77L24.43,32.5l-1.55,7.39Z" transform="translate(-8.33 -4.77)"/><path class="cls-2" d="M26,21.73c-.08,1.29.51,2.38,1.32,2.43s1.54-.95,1.62-2.24-.5-2.39-1.32-2.44S26.1,20.43,26,21.73Z" transform="translate(-8.33 -4.77)"/><path class="cls-2" d="M12.4,17.14s-.93,9.71,3.82,12.77a4.07,4.07,0,0,0,5.23.29s4.23-2.28,4.93-4c0,0,3.65-15.76-5.22-16.27C21.16,9.9,13.58,8.14,12.4,17.14Z" transform="translate(-8.33 -4.77)"/><path class="cls-9" d="M21.37,19.53a.77.77,0,1,0,.77-.77A.76.76,0,0,0,21.37,19.53Z" transform="translate(-8.33 -4.77)"/><path class="cls-4" d="M22.09,19c-.06.08,0,.25.2.37s.36.16.42.07,0-.25-.2-.38S22.15,19,22.09,19Z" transform="translate(-8.33 -4.77)"/><path class="cls-10" d="M20.68,17a.61.61,0,0,0-.37.49s0,.44.39.41c0,0,2.74-.36,3.79.32C24.49,18.18,24.37,16.17,20.68,17Z" transform="translate(-8.33 -4.77)"/><path class="cls-9" d="M16.77,19.53a.77.77,0,1,1-.77-.77A.76.76,0,0,1,16.77,19.53Z" transform="translate(-8.33 -4.77)"/><path class="cls-4" d="M16.05,19c.06.08,0,.25-.2.37s-.36.16-.42.07,0-.25.2-.38S16,19,16.05,19Z" transform="translate(-8.33 -4.77)"/><path class="cls-10" d="M17.46,17a.61.61,0,0,1,.37.49s0,.44-.39.41c0,0-2.74-.36-3.79.32C13.65,18.18,13.78,16.17,17.46,17Z" transform="translate(-8.33 -4.77)"/><path class="cls-11" d="M18.51,21.27a2,2,0,0,1,0,.27,5.45,5.45,0,0,1-.05.62,6.06,6.06,0,0,1-.18.77,1.72,1.72,0,0,1-.07.21l0,.1v0h0c0-.09,0,0,0,0h0v0a1.77,1.77,0,0,0-.05.32,1.57,1.57,0,0,0,0,.25.49.49,0,0,0,.05.16,1,1,0,0,0,.51.28c.21.07.42.1.56.14l.24,0-.19.15a2,2,0,0,1-.59.29,1.66,1.66,0,0,1-.47.07,1.25,1.25,0,0,1-1.14-.67,1.84,1.84,0,0,1-.19-.68A2.6,2.6,0,0,1,17,23l0-.09v-.06h0v0l0,0,.05-.11c0-.08.07-.15.1-.22a3.08,3.08,0,0,1,.54-.7,2.69,2.69,0,0,1,.53-.39A1.52,1.52,0,0,1,18.51,21.27Z" transform="translate(-8.33 -4.77)"/><path class="cls-4" d="M16.88,25.92h4.26s-.07,1.57-2.13,1.74A2,2,0,0,1,16.88,25.92Z" transform="translate(-8.33 -4.77)"/><path class="cls-12" d="M16.52,25.92a7.12,7.12,0,0,1,.81-.18c.24,0,.53-.07.83-.09s.63,0,.95,0a12.84,12.84,0,0,1,1.77.13,6.51,6.51,0,0,1,.81.18,5.69,5.69,0,0,1-.81.17,11.35,11.35,0,0,1-1.77.14c-.32,0-.65,0-.95,0s-.59-.06-.83-.1A6.14,6.14,0,0,1,16.52,25.92Z" transform="translate(-8.33 -4.77)"/><path class="cls-12" d="M16.93,26.19s0,.08.1.22a2,2,0,0,0,.38.46,1.79,1.79,0,0,0,.3.22,1.88,1.88,0,0,0,.38.15,2.85,2.85,0,0,0,.44.09l.23,0H19a3.68,3.68,0,0,0,.9-.14,2.28,2.28,0,0,0,.71-.38,2.23,2.23,0,0,0,.4-.45,1.47,1.47,0,0,0,.13-.2v.06a.76.76,0,0,1,0,.19,1.73,1.73,0,0,1-.25.63,1.8,1.8,0,0,1-.76.64A2.69,2.69,0,0,1,19,28h-.16l-.13,0-.29,0a3.74,3.74,0,0,1-.54-.17l-.24-.13-.21-.16a1.74,1.74,0,0,1-.31-.37,1.35,1.35,0,0,1-.21-.65A1,1,0,0,1,16.93,26.19Z" transform="translate(-8.33 -4.77)"/><path class="cls-13" d="M28.35,12.42A38.86,38.86,0,0,1,28,19.53c-.7-.11-.87,0-.87,0l-.19,3.08h-.45V19.26c0-2.16-1.61-2.17-1.61-2.17a4.24,4.24,0,0,0,0-3.59c-.66-1.6-9.15-1.09-9.15-1.09-3.25.07-2.41,4-2.41,4a.92.92,0,0,0-.93.88,13.37,13.37,0,0,0-.07,2.28s-2-6.48.25-9.77a1.22,1.22,0,0,0-2.21-.36S13,3.88,21.69,4.9c0,0,4.84.85,4.32,3.48C26,8.38,28.21,8.81,28.35,12.42Z" transform="translate(-8.33 -4.77)"/><path class="cls-12" d="M18.29,28.06l.22-.11a1,1,0,0,1,.38-.09l.2,0,.18.07a1,1,0,0,1,.23.12.58.58,0,0,1-.15.22.46.46,0,0,1-.2.13.67.67,0,0,1-.72-.13A.5.5,0,0,1,18.29,28.06Z" transform="translate(-8.33 -4.77)"/><path d="M26,8.38a6.87,6.87,0,0,1-.56.76c-.17.22-.39.47-.62.72s-.5.53-.77.78a15.51,15.51,0,0,1-1.57,1.3,7.76,7.76,0,0,1-.8.51,7.51,7.51,0,0,1,.55-.76,16.69,16.69,0,0,1,1.4-1.5c.27-.25.55-.5.82-.72s.52-.42.75-.58A7.76,7.76,0,0,1,26,8.38Z" transform="translate(-8.33 -4.77)"/></g></g></svg>